<svg id="logo_andbankbrasil_desk" xmlns="http://www.w3.org/2000/svg" width="1084" height="97" viewBox="0 0 1084 97">
  <path id="Path_9" data-name="Path 9" d="M-55.488-195.984c13.414.239,33.367.125,49.768,0-7.335-12.384-15.824-26.322-24.882-40.483-9.522,14.99-17.668,28.336-24.886,40.483M-2.742-190.9c-15.362-.235-38.186-.353-55.845,0-4.817,8.146-9.292,15.7-13.528,22.671h-7.922l-.337-.483c15.248-21.594,31.765-48.51,46.218-73.184h11.119c13.762,24.2,27.067,46.04,45.3,73.184l-.453.483H10.33C6.78-174.5,2.423-182.281-2.742-190.9" transform="translate(80.374 244.516)"/>
  <path id="Path_10" data-name="Path 10" d="M-26.129-241.9h8.948c20.871,20.183,46.56,43.791,67.545,62.8.232-16.645.232-47.22,0-62.436l.456-.365h5.74l.458.476c-.458,21.129-.458,50.52,0,72.71l-.572.481h-8.49c-18.007-17.95-47.6-45.22-67.891-63.51-.228,14.744-.346,44.73,0,63.145l-.46.365h-5.851l-.34-.365c.34-18.176.34-55.833,0-72.938Z" transform="translate(149.143 244.516)"/>
  <path id="Path_11" data-name="Path 11" d="M32.027-173.729c6.2.592,9.862,1.656,25.688,1.656,31.191,0,45.762-11.807,45.762-31.405,0-21.484-15.371-33.289-46.329-33.289a139.76,139.76,0,0,0-25.121,2.13c-.337,12.035-.228,40.954,0,60.908m-9.748,5.785c.465-22.665.465-55.248,0-72.359l.465-.476c8.822-.351,16.4-1.533,36.58-1.533,29.24,0,55.047,12.4,55.047,38.6,0,23.369-25,37.063-55.047,37.063-17.889,0-28.443-1.053-36.58-.943Z" transform="translate(211.619 243.987)"/>
  <path id="Path_12" data-name="Path 12" d="M108.248-172.073c29.935,0,37.853-4.6,37.853-15.476,0-12.976-12.277-14.742-39.23-14.742-10.438,0-18.121.237-24.654.583,0,9.686.116,19.958.116,27.978a187.049,187.049,0,0,0,25.914,1.656m-3.324-35.764c28.443-.355,37.044-4.256,37.044-14.879,0-10.265-7.918-14.052-33.26-14.052a153.264,153.264,0,0,0-26.26,2.005c-.114,5.316-.23,15.827-.23,27.042,8.146,0,11.814,0,22.706-.116M73.047-240.78c8.829-.351,19.26-1.533,37.837-1.533,25.123,0,40.943,4.133,40.943,19.839,0,9.2-9.4,14.637-21.443,16.282v.355c13.756,1.185,25.921,5.9,25.921,17.353,0,16.522-17.433,21.831-46.45,21.831-10.547,0-30.156-.706-36.926-1.05l-.344-.365c.344-18.645.344-54.06,0-72.357Z" transform="translate(275.936 243.987)"/>
  <path id="Path_13" data-name="Path 13" d="M142.159-195.984c13.418.239,33.378.125,49.781,0-7.337-12.384-15.827-26.322-24.888-40.483-9.517,14.99-17.663,28.336-24.893,40.483m52.757,5.081c-15.376-.235-38.181-.353-55.847,0-4.819,8.146-9.29,15.7-13.53,22.671h-7.916l-.351-.483c15.257-21.594,31.77-48.51,46.225-73.184h11.119c13.76,24.2,27.069,46.04,45.306,73.184l-.46.483H207.988c-3.55-6.268-7.909-14.049-13.072-22.671" transform="translate(333.072 244.516)"/>
  <path id="Path_14" data-name="Path 14" d="M170.386-241.9h8.95c20.871,20.183,46.55,43.791,67.547,62.8.226-16.645.226-47.22,0-62.436l.449-.365h5.74l.456.476c-.456,21.129-.456,50.52,0,72.71l-.572.481H244.47c-18-17.95-47.589-45.22-67.891-63.51-.226,14.744-.339,44.73,0,63.145l-.463.365h-5.84l-.346-.365c.346-18.176.346-55.833,0-72.938Z" transform="translate(400.396 244.516)"/>
  <path id="Path_15" data-name="Path 15" d="M230.071-168.232H221l-.346-.242c.46-22.665.46-56.07,0-73.061l.46-.365h8.952l.456.476c-.346,11.445-.456,26.556-.456,41.9,23.505-15.82,40.6-29.279,57.563-42.381h12.853l.223.476c-12.5,7.67-27.75,18.178-43.577,29.512,13.186,12.507,31.3,29.154,48.278,43.2l-.344.481H291.42c-15.592-15.353-27.409-25.98-41.971-38.136l-19.379,13.933c.109,8.376.223,16.526.456,23.838Z" transform="translate(465.254 244.516)"/>
  <path id="Path_16" data-name="Path 16" d="M280.117-166.948l22.238-74.943H292.7l-22.471,74.943Z" transform="translate(528.628 244.526)" fill="#e22024"/>
  <text id="Brasil" transform="translate(862 73)" font-size="97" font-family="MyriadPro-Bold, Myriad Pro" font-weight="700" letter-spacing="-0.041em"><tspan x="0" y="0">Brasil</tspan></text>
</svg>
