<svg id="Group_86" data-name="Group 86" xmlns="http://www.w3.org/2000/svg" width="736" height="65" viewBox="0 0 736 65">
  <path id="Path_9" data-name="Path 9" d="M-63.416-210.611c9.141.163,22.738.085,33.914,0-5-8.439-10.783-17.937-16.955-27.587-6.489,10.215-12.04,19.309-16.958,27.587m35.943,3.462c-10.468-.16-26.021-.241-38.055,0-3.282,5.551-6.332,10.7-9.218,15.449h-5.4l-.23-.329c10.391-14.715,21.646-33.057,31.495-49.871H-41.3c9.378,16.488,18.444,31.374,30.867,49.871l-.309.329h-7.821c-2.419-4.271-5.388-9.574-8.908-15.449" transform="translate(80.374 243.682)"/>
  <path id="Path_10" data-name="Path 10" d="M-26.275-241.9h6.1c14.223,13.754,31.728,29.841,46.028,42.8.158-11.342.158-32.178,0-42.547l.311-.248h3.911l.312.324c-.312,14.4-.312,34.426,0,49.548l-.39.328H24.209c-12.271-12.232-32.434-30.815-46.264-43.278-.155,10.047-.236,30.481,0,43.03l-.314.248h-3.987l-.231-.248c.231-12.386.231-38.047,0-49.7Z" transform="translate(110.101 243.682)"/>
  <path id="Path_11" data-name="Path 11" d="M28.921-195.577a114.8,114.8,0,0,0,17.5,1.129c21.255,0,31.184-8.046,31.184-21.4,0-14.64-10.474-22.685-31.571-22.685a95.237,95.237,0,0,0-17.118,1.452c-.23,8.2-.155,27.908,0,41.5m-6.642,3.942c.317-15.445.317-37.648,0-49.309l.317-.324c6.012-.239,11.175-1.045,24.927-1.045,19.926,0,37.511,8.447,37.511,26.3,0,15.924-17.035,25.256-37.511,25.256-12.19,0-19.382-.717-24.927-.643Z" transform="translate(137.109 243.454)"/>
  <path id="Path_12" data-name="Path 12" d="M96.887-194.448c20.4,0,25.795-3.138,25.795-10.546,0-8.843-8.366-10.046-26.733-10.046-7.113,0-12.349.161-16.8.4,0,6.6.079,13.6.079,19.065a127.459,127.459,0,0,0,17.659,1.129m-2.265-24.371c19.382-.242,25.244-2.9,25.244-10.139,0-6.995-5.4-9.575-22.665-9.575a104.44,104.44,0,0,0-17.895,1.366c-.078,3.622-.157,10.785-.157,18.427,5.551,0,8.051,0,15.473-.079M72.9-241.268c6.017-.239,13.125-1.045,25.784-1.045,17.12,0,27.9,2.817,27.9,13.519,0,6.268-6.4,9.974-14.612,11.1v.242c9.374.807,17.663,4.021,17.663,11.825,0,11.259-11.88,14.876-31.653,14.876-7.187,0-20.55-.481-25.163-.716l-.234-.248c.234-12.706.234-36.839,0-49.307Z" transform="translate(164.912 243.454)"/>
  <path id="Path_13" data-name="Path 13" d="M134.231-210.611c9.144.163,22.745.085,33.923,0-5-8.439-10.785-17.937-16.96-27.587-6.486,10.215-12.036,19.309-16.963,27.587m35.951,3.462c-10.478-.16-26.018-.241-38.056,0-3.284,5.551-6.33,10.7-9.22,15.449h-5.394l-.239-.329c10.4-14.715,21.649-33.057,31.5-49.871h7.577c9.377,16.488,18.446,31.374,30.874,49.871l-.314.329H179.09c-2.419-4.271-5.389-9.574-8.908-15.449" transform="translate(189.611 243.682)"/>
  <path id="Path_14" data-name="Path 14" d="M170.241-241.9h6.1c14.223,13.754,31.721,29.841,46.029,42.8.154-11.342.154-32.178,0-42.547l.306-.248h3.911l.311.324c-.311,14.4-.311,34.426,0,49.548l-.39.328h-5.782c-12.266-12.232-32.429-30.815-46.264-43.278-.154,10.047-.231,30.481,0,43.03l-.315.248h-3.98l-.236-.248c.236-12.386.236-38.047,0-49.7Z" transform="translate(218.714 243.682)"/>
  <path id="Path_15" data-name="Path 15" d="M227.072-191.7h-6.178l-.236-.165c.314-15.445.314-38.208,0-49.787l.314-.248h6.1l.311.324c-.236,7.8-.311,18.1-.311,28.555,16.017-10.78,27.666-19.952,39.225-28.88h8.759l.152.324c-8.52,5.226-18.91,12.387-29.7,20.11,8.985,8.523,21.332,19.867,32.9,29.437l-.234.328h-9.3c-10.625-10.462-18.677-17.7-28.6-25.987l-13.206,9.495c.075,5.708.152,11.262.311,16.244Z" transform="translate(246.75 243.682)"/>
  <path id="Path_16" data-name="Path 16" d="M276.966-190.822l15.154-51.069h-6.582l-15.313,51.069Z" transform="translate(274.146 243.687)" fill="#e22024"/>
  <text id="Brasil" transform="translate(587 49)" font-size="65" font-family="MyriadPro-Bold, Myriad Pro" font-weight="700" letter-spacing="-0.041em"><tspan x="0" y="0">Brasil</tspan></text>
</svg>
