<svg xmlns="http://www.w3.org/2000/svg" width="17.48" height="21.808" viewBox="0 0 17.48 21.808">
  <path id="gift" d="M31.968,10.181h-.629a2.795,2.795,0,0,0-4.627-2.867L25.1,8.928a2.236,2.236,0,0,0-2.456,0L21.028,7.313A2.795,2.795,0,0,0,16.4,10.181h-.629a.642.642,0,0,0-.642.642V27.016a.642.642,0,0,0,.642.642h5.374a1.278,1.278,0,0,0,1.105.642h3.238a1.278,1.278,0,0,0,1.105-.642h5.374a.642.642,0,0,0,.642-.642V10.822A.642.642,0,0,0,31.968,10.181Zm-4.339-1.96a1.554,1.554,0,0,1,2.148,0,1.521,1.521,0,0,1,.16,1.96h-3.91a2.232,2.232,0,0,0-.093-.273ZM23.87,9.842a.978.978,0,0,1,.739.336H23.13A.978.978,0,0,1,23.87,9.842Zm-5.9-1.622a1.521,1.521,0,0,1,2.148,0l1.684,1.684a2.232,2.232,0,0,0-.093.273h-3.9A1.521,1.521,0,0,1,17.975,8.221Zm-1.561,3.243h4.554V26.377H16.413Zm9.076,15.552H22.251V11.464h3.238Zm5.837-.642H26.772V11.464h4.554Z" transform="translate(-15.13 -6.492)" fill="#e22024"/>
</svg>
