<?xml version="1.0" standalone="no"?>
<!DOCTYPE svg PUBLIC "-//W3C//DTD SVG 20010904//EN"
 "http://www.w3.org/TR/2001/REC-SVG-20010904/DTD/svg10.dtd">
<svg version="1.0" xmlns="http://www.w3.org/2000/svg"
 width="1042.000000pt" height="625.000000pt" viewBox="0 0 1042.000000 625.000000"
 preserveAspectRatio="xMidYMid meet">

<g transform="translate(0.000000,625.000000) scale(0.100000,-0.100000)"
fill="#000000" stroke="none">
<path d="M3360 3080 c-63 -4 -118 -8 -122 -9 -5 0 -8 -145 -8 -321 l0 -320
223 0 c189 0 236 3 300 19 199 51 297 152 297 306 0 244 -236 355 -690 325z
m365 -63 c152 -42 227 -129 228 -267 2 -157 -97 -243 -310 -271 -81 -10 -254
-6 -310 8 l-23 5 0 258 c0 162 4 261 10 265 42 26 313 27 405 2z"/>
<path d="M4395 3080 c-66 -4 -123 -8 -127 -9 -5 0 -8 -145 -8 -322 l0 -321
278 4 c226 4 287 8 329 21 197 65 186 271 -16 303 -39 6 -58 24 -26 24 32 0
111 49 129 80 21 37 18 96 -9 136 -27 42 -110 73 -221 84 -107 10 -145 10
-329 0z m387 -60 c21 -6 50 -22 65 -35 23 -19 28 -32 28 -68 0 -94 -53 -116
-310 -130 -106 -5 -200 -7 -209 -4 -13 5 -16 24 -16 121 l0 115 58 6 c31 3 66
8 77 10 37 7 270 -5 307 -15z m-54 -290 c51 -6 105 -16 120 -24 60 -31 81 -84
58 -141 -20 -48 -79 -73 -199 -86 -85 -10 -276 -5 -339 7 l-28 6 0 118 0 119
48 4 c99 8 251 6 340 -3z"/>
<path d="M1455 2938 c-49 -79 -138 -217 -199 -308 -61 -90 -115 -170 -119
-177 -6 -10 2 -13 31 -13 39 0 40 1 96 95 l57 95 253 0 252 0 55 -95 54 -95
57 0 57 0 -109 163 c-59 89 -151 232 -202 317 l-95 155 -50 3 -50 3 -88 -143z
m227 -78 c47 -74 90 -145 97 -157 l12 -23 -216 0 c-118 0 -215 2 -215 6 0 6
118 195 173 278 32 48 41 56 52 45 6 -8 50 -75 97 -149z"/>
<path d="M2230 2760 l0 -320 30 0 30 0 0 271 0 271 48 -40 c75 -64 286 -254
424 -383 122 -115 128 -119 171 -119 l45 0 0 320 0 320 -29 0 -29 0 0 -270 c0
-148 -3 -270 -6 -270 -7 0 -202 173 -436 387 -158 145 -169 153 -207 153 l-41
0 0 -320z"/>
<path d="M5520 2972 c-36 -59 -128 -203 -206 -319 l-142 -213 39 0 c38 0 39 2
96 95 l58 95 252 0 252 0 56 -95 56 -95 55 0 56 0 -19 28 c-103 153 -228 347
-300 466 l-88 146 -50 0 -50 0 -65 -108z m203 -107 c54 -85 100 -162 103 -170
5 -13 -22 -15 -210 -15 l-217 0 12 22 c28 53 201 318 207 318 4 0 51 -70 105
-155z"/>
<path d="M6250 2760 l0 -320 30 0 30 0 0 271 0 271 33 -27 c64 -54 394 -352
478 -432 83 -80 88 -83 133 -83 l46 0 0 320 0 320 -30 0 -30 0 0 -270 c0 -148
-3 -270 -6 -270 -7 0 -185 158 -436 387 -158 144 -170 153 -208 153 l-40 0 0
-320z"/>
<path d="M7290 2760 l0 -320 40 0 40 0 0 103 0 102 78 54 c42 30 84 56 92 58
13 3 116 -82 314 -260 l64 -58 61 3 60 3 -137 117 c-75 65 -171 148 -211 186
l-75 68 116 80 c64 43 151 102 195 129 l78 50 -58 3 -58 3 -147 -109 c-81 -60
-198 -144 -259 -186 l-113 -77 0 185 0 186 -40 0 -40 0 0 -320z"/>
<path d="M8751 2512 c-96 -312 -189 -613 -207 -670 l-33 -103 47 3 46 3 203
665 c111 366 203 666 203 668 0 1 -19 2 -42 2 l-43 0 -174 -568z"/>
<path d="M4847 2063 c-14 -13 -6 -33 13 -33 13 0 20 7 20 20 0 19 -20 27 -33
13z"/>
<path d="M7050 2066 c0 -2 -9 -70 -20 -151 -24 -177 -24 -175 -5 -175 10 0 15
11 16 33 1 17 4 43 8 56 6 23 9 22 58 -33 34 -39 57 -57 70 -54 15 3 7 15 -40
64 l-57 61 67 52 c56 42 63 51 42 51 -13 0 -35 -9 -49 -21 -14 -11 -38 -29
-54 -41 l-29 -21 7 64 c4 35 10 76 13 92 4 20 2 27 -11 27 -9 0 -16 -2 -16 -4z"/>
<path d="M4429 2059 c0 -2 -10 -75 -23 -161 -20 -145 -21 -158 -5 -158 13 0
18 15 25 73 l9 72 67 5 c78 6 105 25 114 81 4 25 1 41 -14 59 -17 21 -30 25
-96 28 -42 2 -76 3 -77 1z m139 -45 c28 -19 28 -41 0 -71 -17 -18 -32 -23 -75
-23 l-53 0 6 43 c3 23 7 48 10 55 5 17 85 15 112 -4z"/>
<path d="M5570 2038 c0 -43 -12 -68 -31 -68 -11 0 -19 -4 -19 -10 0 -5 6 -10
14 -10 23 0 25 -10 15 -75 -20 -138 -20 -135 -5 -135 15 0 20 19 31 105 11 96
15 105 41 105 13 0 24 5 24 10 0 6 -11 10 -25 10 -23 0 -24 2 -18 45 5 38 3
45 -11 45 -10 0 -16 -8 -16 -22z"/>
<path d="M6166 2049 c-3 -8 -12 -70 -21 -139 -8 -69 -18 -135 -20 -147 -5 -22
-3 -23 79 -23 75 0 88 3 112 24 38 32 39 89 2 121 -25 22 -26 23 -8 41 32 33
34 68 7 99 -20 24 -33 29 -85 33 -46 3 -63 1 -66 -9z m115 -29 c27 -15 25 -64
-3 -84 -12 -9 -40 -16 -62 -16 l-39 0 7 38 c3 20 6 45 6 55 0 13 8 17 36 17
19 0 44 -5 55 -10z m-1 -145 c23 -12 30 -23 30 -45 0 -45 -23 -60 -92 -60
l-61 0 7 38 c3 20 6 47 6 60 0 19 5 22 40 22 23 0 54 -7 70 -15z"/>
<path d="M4732 1964 c-12 -8 -22 -10 -22 -5 0 6 -7 11 -15 11 -14 0 -16 -6
-35 -137 -13 -91 -13 -93 4 -93 9 0 17 24 25 78 13 86 35 125 74 130 15 2 27
10 27 18 0 19 -30 18 -58 -2z"/>
<path d="M5263 1966 c-43 -20 -73 -70 -73 -124 0 -54 12 -77 50 -97 37 -19 77
-19 115 1 19 10 31 11 33 5 2 -6 9 -11 16 -11 9 0 17 31 25 93 7 50 15 102 18
115 6 26 -21 32 -31 6 -6 -15 -8 -15 -25 0 -26 24 -89 29 -128 12z m114 -36
c30 -27 36 -55 23 -95 -15 -47 -53 -75 -101 -75 -54 0 -79 27 -79 86 0 39 5
51 31 75 38 35 94 40 126 9z"/>
<path d="M5753 1965 c-64 -28 -92 -119 -58 -186 27 -52 104 -65 164 -28 23 14
31 23 23 31 -7 7 -17 5 -33 -6 -54 -38 -139 -8 -139 49 l0 25 106 0 107 0 -6
38 c-12 76 -87 111 -164 77z m112 -40 c14 -13 25 -29 25 -35 0 -6 -34 -10 -91
-10 l-90 0 15 22 c36 52 102 63 141 23z"/>
<path d="M6471 1962 c-84 -45 -96 -178 -20 -218 36 -18 77 -18 114 2 19 10 31
11 33 5 4 -12 32 -15 32 -3 0 4 7 52 15 107 18 123 18 115 0 115 -8 0 -15 -7
-15 -15 0 -20 -7 -19 -37 5 -32 25 -78 26 -122 2z m126 -38 c55 -55 0 -164
-84 -164 -70 0 -106 72 -69 139 30 55 110 68 153 25z"/>
<path d="M6820 1973 c-8 -3 -24 -13 -34 -22 -18 -15 -19 -15 -13 2 4 11 1 17
-8 17 -16 0 -19 -10 -34 -123 -14 -100 -14 -107 3 -107 9 0 16 18 20 58 14
112 39 152 98 152 48 0 61 -25 54 -99 -4 -36 -9 -76 -13 -88 -4 -16 -1 -23 10
-23 18 0 23 21 33 117 6 68 5 73 -19 97 -25 25 -61 32 -97 19z"/>
<path d="M7320 1958 c-76 -51 -90 -147 -29 -202 28 -25 38 -28 80 -24 56 6
107 34 91 50 -8 8 -18 6 -36 -6 -38 -24 -92 -21 -121 9 -14 13 -25 33 -25 45
0 19 6 20 104 20 58 0 107 4 110 8 9 15 -13 78 -34 97 -32 29 -99 31 -140 3z
m105 -14 c8 -4 22 -19 31 -35 l15 -29 -91 0 c-49 0 -90 4 -90 9 0 5 14 21 31
35 30 25 70 33 104 20z"/>
<path d="M7622 1964 c-12 -8 -22 -10 -22 -5 0 6 -6 11 -13 11 -10 0 -18 -34
-28 -115 -13 -104 -13 -115 1 -113 10 2 17 22 23 67 11 93 29 128 68 138 18 5
34 14 37 21 5 17 -39 15 -66 -4z"/>
<path d="M7742 1964 c-36 -25 -29 -67 18 -105 22 -18 42 -41 46 -51 13 -42
-40 -63 -83 -33 -31 22 -43 -2 -13 -27 32 -26 76 -23 105 7 37 36 32 62 -21
110 -30 28 -45 49 -42 61 4 23 43 31 64 13 10 -8 18 -9 25 -2 7 7 4 16 -12 27
-29 20 -58 20 -87 0z"/>
<path d="M4836 1958 c-5 -17 -26 -178 -26 -200 0 -10 6 -18 13 -18 9 0 17 30
25 98 7 53 12 105 12 115 0 20 -19 23 -24 5z"/>
<path d="M4960 1859 c22 -62 42 -114 44 -116 4 -4 86 130 120 196 15 27 15 31
1 31 -8 0 -36 -36 -61 -80 -26 -45 -51 -77 -56 -72 -4 4 -18 39 -31 77 -15 45
-30 71 -41 73 -13 3 -9 -16 24 -109z"/>
</g>
</svg>
