<svg id="marqueterie" xmlns="http://www.w3.org/2000/svg" width="419.807" height="76.742" viewBox="0 0 419.807 76.742">
  <g id="Group_200" data-name="Group 200" transform="translate(82.531 65.338)">
    <path id="Path_58" data-name="Path 58" d="M68.016,52.64h.81l3.492,7.717h-.931l-.9-2.025H66.318l-.908,2.025h-.886Zm2.134,4.914-1.741-3.908-1.751,3.908Z" transform="translate(-64.523 -50.646)" fill="#5e5f63"/>
    <path id="Path_59" data-name="Path 59" d="M74.611,56.565v-.023a3.846,3.846,0,0,1,3.842-3.963A4.038,4.038,0,0,1,81.311,53.6l-.559.656a3.257,3.257,0,0,0-2.332-.877,2.994,2.994,0,0,0-2.913,3.143v.022a2.96,2.96,0,0,0,3.033,3.185,3.6,3.6,0,0,0,2.212-.766v-1.9H78.421v-.778h3.163v3.054a4.64,4.64,0,0,1-3.076,1.173A3.759,3.759,0,0,1,74.611,56.565Z" transform="translate(-61.707 -50.663)" fill="#5e5f63"/>
    <path id="Path_60" data-name="Path 60" d="M85.015,53.112h5.54V53.9H85.88v2.617h4.181V57.3H85.88v2.682h4.73v.788H85.015ZM87.4,51.141h.788l1.2,1.292h-.788l-.821-.656-.821.656H86.2Z" transform="translate(-58.804 -51.064)" fill="#5e5f63"/>
    <path id="Path_61" data-name="Path 61" d="M94.179,52.682h.81l4.829,6.142V52.682h.843v7.663h-.689l-4.949-6.283v6.283h-.843Z" transform="translate(-56.246 -50.634)" fill="#5e5f63"/>
    <path id="Path_62" data-name="Path 62" d="M104.1,56.565v-.023a3.861,3.861,0,0,1,3.876-3.963,3.991,3.991,0,0,1,2.989,1.215l-.591.634a3.333,3.333,0,0,0-2.409-1.051A3.005,3.005,0,0,0,105,56.52v.022a3.024,3.024,0,0,0,2.966,3.164,3.319,3.319,0,0,0,2.474-1.106l.569.559a3.991,3.991,0,0,1-3.066,1.348A3.824,3.824,0,0,1,104.1,56.565Z" transform="translate(-53.476 -50.663)" fill="#5e5f63"/>
    <path id="Path_63" data-name="Path 63" d="M114.175,52.682h.865v7.663h-.865Z" transform="translate(-50.665 -50.634)" fill="#5e5f63"/>
    <path id="Path_64" data-name="Path 64" d="M123.011,52.64h.81l3.492,7.717h-.931l-.9-2.025h-4.171l-.908,2.025h-.886Zm2.135,4.914-1.741-3.908-1.751,3.908Z" transform="translate(-49.174 -50.646)" fill="#5e5f63"/>
    <path id="Path_65" data-name="Path 65" d="M136.217,52.682h2.661a3.82,3.82,0,0,1,4.073,3.81v.022a3.837,3.837,0,0,1-4.073,3.832h-2.661Zm2.661,6.865a2.966,2.966,0,0,0,3.175-3.011v-.023a2.982,2.982,0,0,0-3.175-3.031h-1.8v6.065Z" transform="translate(-44.513 -50.634)" fill="#5e5f63"/>
    <path id="Path_66" data-name="Path 66" d="M146.339,52.682h5.54v.789H147.2v2.617h4.183v.787H147.2v2.682h4.73v.788h-5.595Z" transform="translate(-41.688 -50.634)" fill="#5e5f63"/>
    <path id="Path_67" data-name="Path 67" d="M161.231,56.565v-.023a3.861,3.861,0,0,1,3.876-3.963,3.991,3.991,0,0,1,2.989,1.215l-.592.634a3.328,3.328,0,0,0-2.407-1.051,3.005,3.005,0,0,0-2.966,3.143v.022a3.024,3.024,0,0,0,2.966,3.164A3.319,3.319,0,0,0,167.57,58.6l.569.559a3.99,3.99,0,0,1-3.065,1.348A3.824,3.824,0,0,1,161.231,56.565Z" transform="translate(-37.532 -50.663)" fill="#5e5f63"/>
    <path id="Path_68" data-name="Path 68" d="M170.8,56.565v-.023a3.909,3.909,0,1,1,7.817-.022v.022a3.909,3.909,0,1,1-7.817.023Zm6.919,0v-.023a3.048,3.048,0,0,0-3.023-3.164,3.011,3.011,0,0,0-3,3.143v.022a3.048,3.048,0,0,0,3.023,3.164A3.01,3.01,0,0,0,177.724,56.565Z" transform="translate(-34.86 -50.663)" fill="#5e5f63"/>
    <path id="Path_69" data-name="Path 69" d="M181.775,52.682h.876l2.792,4.183,2.791-4.183h.876v7.663h-.865V54.139l-2.792,4.106h-.043l-2.792-4.094v6.2h-.843V52.682Z" transform="translate(-31.798 -50.634)" fill="#5e5f63"/>
    <path id="Path_70" data-name="Path 70" d="M192.54,57.138V52.682h.865v4.4c0,1.654.876,2.584,2.342,2.584,1.413,0,2.31-.853,2.31-2.529V52.682h.865v4.39c0,2.233-1.28,3.395-3.2,3.395A3,3,0,0,1,192.54,57.138Z" transform="translate(-28.793 -50.634)" fill="#5e5f63"/>
    <path id="Path_71" data-name="Path 71" d="M202.558,52.682h.811l4.827,6.142V52.682h.843v7.663h-.689L203.4,54.062v6.283h-.843Z" transform="translate(-25.997 -50.634)" fill="#5e5f63"/>
    <path id="Path_72" data-name="Path 72" d="M212.81,52.682h.865v7.663h-.865Z" transform="translate(-23.136 -50.634)" fill="#5e5f63"/>
    <path id="Path_73" data-name="Path 73" d="M218.4,56.565v-.023a3.861,3.861,0,0,1,3.876-3.963,3.991,3.991,0,0,1,2.989,1.215l-.591.634a3.333,3.333,0,0,0-2.409-1.051A3.005,3.005,0,0,0,219.3,56.52v.022a3.025,3.025,0,0,0,2.968,3.164A3.321,3.321,0,0,0,224.74,58.6l.569.559a3.991,3.991,0,0,1-3.066,1.348A3.823,3.823,0,0,1,218.4,56.565Z" transform="translate(-21.575 -50.663)" fill="#5e5f63"/>
    <path id="Path_74" data-name="Path 74" d="M231.392,52.64h.81l3.492,7.717h-.931l-.9-2.025h-4.171l-.909,2.025H227.9Zm2.135,4.914-1.741-3.908-1.751,3.908Z" transform="translate(-18.925 -50.646)" fill="#5e5f63"/>
    <path id="Path_75" data-name="Path 75" d="M240.46,61.7l.843-1.227a3.828,3.828,0,0,1-3.317-3.908v-.023a3.861,3.861,0,0,1,3.876-3.963,3.991,3.991,0,0,1,2.989,1.215l-.591.634a3.333,3.333,0,0,0-2.409-1.051,3.005,3.005,0,0,0-2.968,3.143v.022a3.025,3.025,0,0,0,2.968,3.164,3.321,3.321,0,0,0,2.474-1.106l.569.559A3.977,3.977,0,0,1,242,60.5l-.723,1.576Z" transform="translate(-16.109 -50.663)" fill="#5e5f63"/>
    <path id="Path_76" data-name="Path 76" d="M250.976,53.075h.81l3.492,7.717h-.931l-.9-2.025h-4.171l-.909,2.025h-.886Zm-1.367-.789c.219-.755.514-1.117,1.03-1.117.481,0,1.105.427,1.467.427.284,0,.405-.153.569-.515l.537.153c-.219.755-.514,1.106-1.03,1.106-.482,0-1.106-.427-1.467-.427-.284,0-.4.153-.569.526Zm3.5,5.7-1.742-3.908-1.751,3.908Z" transform="translate(-13.459 -51.081)" fill="#5e5f63"/>
    <path id="Path_77" data-name="Path 77" d="M257.571,56.565v-.023a3.909,3.909,0,1,1,7.817-.022v.022a3.909,3.909,0,1,1-7.817.023Zm6.919,0v-.023a3.048,3.048,0,0,0-3.023-3.164,3.011,3.011,0,0,0-3,3.143v.022a3.047,3.047,0,0,0,3.023,3.164A3.011,3.011,0,0,0,264.49,56.565Z" transform="translate(-10.643 -50.663)" fill="#5e5f63"/>
  </g>
  <g id="Group_201" data-name="Group 201">
    <path id="Path_78" data-name="Path 78" d="M57.87,29.861H45.1l-3.051,7.7h-6.2L51.482,0,67.068,37.557H60.92Zm-2.031-5.033L51.481,13.891,47.127,24.827Z" transform="translate(10.006)" fill="#5e5f63"/>
    <path id="Path_79" data-name="Path 79" d="M96.455,37.2H90.112L81.065,25.05H76.951V37.2H71.332V1.286H81.983c4.742,0,7.5,1.937,8.954,3.583a12.18,12.18,0,0,1,2.9,8.323,12.14,12.14,0,0,1-2.9,8.277,10.045,10.045,0,0,1-4.162,2.758ZM81.984,20.016a6.6,6.6,0,0,0,5.175-1.935,7.119,7.119,0,0,0,1.6-4.889,7.158,7.158,0,0,0-1.6-4.935C86.048,7,84.307,6.368,81.984,6.368H76.951V20.016Z" transform="translate(19.909 0.359)" fill="#5e5f63"/>
    <path id="Path_80" data-name="Path 80" d="M144.553,34.343a10.631,10.631,0,0,1-3.194-3.872A12.081,12.081,0,0,1,140.147,25V1.286h5.617V25a5.83,5.83,0,0,0,2.226,4.887,8.968,8.968,0,0,0,5.469,1.695,9.167,9.167,0,0,0,5.466-1.695A5.8,5.8,0,0,0,161.105,25V1.286h5.661V25a12.75,12.75,0,0,1-1.209,5.469,11.721,11.721,0,0,1-3.194,3.872,15.319,15.319,0,0,1-17.81,0Z" transform="translate(39.115 0.359)" fill="#5e5f63"/>
    <path id="Path_81" data-name="Path 81" d="M179.732,15.9h13.116v5.081H179.732V32.116h15.921V37.2H174.121V1.286h21.532V6.319H179.732Z" transform="translate(48.597 0.359)" fill="#5e5f63"/>
    <path id="Path_82" data-name="Path 82" d="M227.3,6.319h-9.876V37.2h-5.661V6.319h-9.876V1.286H227.3V6.319Z" transform="translate(56.346 0.359)" fill="#5e5f63"/>
    <path id="Path_83" data-name="Path 83" d="M238.975,15.9h13.117v5.081H238.975V32.116H254.9V37.2H233.362V1.286H254.9V6.319H238.975Z" transform="translate(65.132 0.359)" fill="#5e5f63"/>
    <path id="Path_84" data-name="Path 84" d="M288.061,37.2h-6.339L272.674,25.05h-4.116V37.2h-5.611V1.286h10.646c4.743,0,7.5,1.937,8.954,3.583a12.181,12.181,0,0,1,2.9,8.323,12.148,12.148,0,0,1-2.9,8.277,10.079,10.079,0,0,1-4.162,2.758ZM273.593,20.016a6.606,6.606,0,0,0,5.177-1.935,7.131,7.131,0,0,0,1.6-4.889,7.17,7.17,0,0,0-1.6-4.935c-1.112-1.26-2.855-1.889-5.177-1.889h-5.034V20.016Z" transform="translate(73.389 0.359)" fill="#5e5f63"/>
    <path id="Path_85" data-name="Path 85" d="M293.586,37.2V1.286H299.2V37.2h-5.615Z" transform="translate(81.94 0.359)" fill="#5e5f63"/>
    <path id="Path_86" data-name="Path 86" d="M316.98,15.9H330.1v5.081H316.98V32.116h15.925V37.2h-21.54V1.286h21.54V6.319H316.98Z" transform="translate(86.902 0.359)" fill="#5e5f63"/>
    <path id="Path_87" data-name="Path 87" d="M28.121,37.557V18.488L16.893,35.233,5.617,18.488V37.557H0V0L16.893,25.166,33.782,0V37.557Z" fill="#5e5f63"/>
    <path id="Path_88" data-name="Path 88" d="M134.706,26.91a17.091,17.091,0,0,0,1.4-6.97,17.483,17.483,0,0,0-1.4-7.018,17.7,17.7,0,0,0-9.533-9.533,17.473,17.473,0,0,0-7.017-1.4,17.068,17.068,0,0,0-6.969,1.4,17.669,17.669,0,0,0-5.71,3.823A17.76,17.76,0,0,0,100.2,19.94a17.946,17.946,0,0,0,17.955,17.955,18.347,18.347,0,0,0,7.017-1.4c.385-.192.821-.386,1.209-.581l3.291,4.405,4.068-3.049L130.5,33.006c.141-.145.242-.243.385-.386A17.669,17.669,0,0,0,134.706,26.91Zm-5.073-2.437a.377.377,0,0,0-.027.078,12.768,12.768,0,0,1-1,1.939c-.037.054-.064.11-.1.165a12.224,12.224,0,0,1-1.248,1.6c-.055.063-.095.137-.152.2l-.013-.015a12.391,12.391,0,1,1,2.536-3.97Z" transform="translate(27.966 0.554)" fill="#5e5f63"/>
  </g>
</svg>
